<?xml version="1.0" encoding="UTF-8" standalone="no"?>
<svg width="30px" height="16px" viewBox="0 0 30 16" version="1.1" xmlns="http://www.w3.org/2000/svg" xmlns:xlink="http://www.w3.org/1999/xlink">
    <!-- Generator: Sketch 3.6.1 (26313) - http://www.bohemiancoding.com/sketch -->
    <title>Imported Layers Copy 2</title>
    <desc>Created with Sketch.</desc>
    <defs></defs>
    <g id="Welcome" stroke="none" stroke-width="1" fill="none" fill-rule="evenodd">
        <g id="Desktop" transform="translate(-339.000000, -1638.000000)" fill="#FFFFFF">
            <g id="Skills" transform="translate(-15.000000, 1506.000000)">
                <g id="Imported-Layers-Copy-2" transform="translate(354.000000, 132.000000)">
                    <path d="M0.529906253,6.59010939 C2.82424063,5.34471564 5.11857502,4.09932189 7.4129094,2.85392813 C7.97607502,2.54793751 8.54043128,2.24432813 9.10240628,1.93714688 C9.4179219,1.76569688 9.43101878,1.77165001 9.43101878,2.14312501 C9.4322094,2.98132501 9.4226844,3.82071564 9.4369719,4.66010626 C9.44054378,4.90418439 9.35481878,5.03039064 9.1369344,5.13278439 C7.29741877,6.00551252 5.46385627,6.88895627 3.63029376,7.7712094 C3.54099689,7.81526252 3.43026876,7.83193127 3.37430939,7.93551565 C3.43741251,8.03076565 3.54456876,8.05338752 3.63386564,8.09744065 C5.46385627,9.0094594 7.29265627,9.92266878 9.12860003,10.8239719 C9.35481878,10.9358907 9.44292503,11.06805 9.43816253,11.3228438 C9.42149378,12.1622344 9.4322094,13.0004344 9.43101878,13.839825 C9.43101878,14.1696282 9.40958753,14.1815344 9.1274094,14.0279438 C6.37230315,12.525375 3.61719689,11.0216157 0.860900004,9.52023753 C0.753743754,9.4618969 0.640634379,9.41546253 0.529906253,9.36307503 L0.529906253,6.59010939" id="Fill-1"></path>
                    <path d="M29.5037657,9.30592503 C28.8132032,9.69287815 28.125022,10.0834032 27.4308876,10.4632125 C25.2651407,11.649075 23.0970126,12.8313657 20.9300751,14.0160375 C20.6205126,14.1839157 20.6026532,14.1767719 20.6026532,13.8386344 C20.6014626,12.9801938 20.6074157,12.1217532 20.5978907,11.2645032 C20.5955094,11.0537625 20.6729001,10.9466063 20.8598282,10.8549282 C22.7231563,9.94410003 24.5805313,9.02255628 26.439097,8.10339377 C26.5141063,8.0664844 26.5855438,8.0236219 26.6641251,7.9807594 C26.6057845,7.85098127 26.4831501,7.83550315 26.3879001,7.78787815 C24.5698157,6.89371877 22.7529219,5.99836877 20.9276938,5.11611564 C20.6788532,4.99586251 20.5895563,4.85060626 20.5955094,4.57557189 C20.6133688,3.74570626 20.6002719,2.91584063 20.6026532,2.08597501 C20.6038438,1.79308126 20.6336094,1.77522188 20.8800688,1.90976251 C23.7554282,3.46948126 26.629597,5.03039064 29.5037657,6.59010939 L29.5037657,9.30592503" id="Fill-2"></path>
                    <path d="M10.8859625,15.8710313 C11.0931313,15.1257 11.4015032,14.4184688 11.6705844,13.6957594 C13.329125,9.2523469 14.9948094,4.81250626 16.6581125,0.371475001 C16.6950219,0.275034376 16.7331219,0.178593751 16.7712219,0.0821531252 L18.6381219,0.0821531252 C18.6714594,0.201215626 18.6166907,0.304800001 18.5774001,0.409575001 C16.6771625,5.47806564 14.7757344,10.5477469 12.8731157,15.6162375 C12.8409688,15.7043438 12.7933438,15.7864969 12.7528625,15.8710313 L10.8859625,15.8710313" id="Fill-3"></path>
                </g>
            </g>
        </g>
    </g>
</svg>