<?xml version="1.0" encoding="UTF-8" standalone="no"?>
<svg width="23px" height="13px" viewBox="0 0 23 13" version="1.1" xmlns="http://www.w3.org/2000/svg" xmlns:xlink="http://www.w3.org/1999/xlink">
    <!-- Generator: Sketch 3.6.1 (26313) - http://www.bohemiancoding.com/sketch -->
    <title>Fill 1</title>
    <desc>Created with Sketch.</desc>
    <defs></defs>
    <g id="Welcome" stroke="none" stroke-width="1" fill="none" fill-rule="evenodd">
        <g id="Desktop" transform="translate(-272.000000, -2050.000000)" fill="#5BB2B8">
            <g id="Education" transform="translate(271.000000, 2046.000000)">
                <path d="M12.34652,16.2076353 C14.6918342,16.2076353 16.5910886,15.7305714 16.5910886,15.1454931 C16.5910886,14.5604147 14.6918342,14.0833508 12.34652,14.0833508 C10.0012058,14.0833508 8.09995112,14.5604147 8.09995112,15.1454931 C8.09995112,15.7305714 10.0012058,16.2076353 12.34652,16.2076353 L12.34652,16.2076353 Z M12.4125288,10.1028175 C15.794982,10.1028175 17.4542042,11.8930574 17.4542042,11.8930574 L17.4542042,15.6095552 C17.4542042,15.6095552 15.7299732,17.0017417 12.1454931,17.0017417 C8.56401328,17.0017417 7.36885318,15.6095552 7.36885318,15.6095552 L7.36885318,11.8930574 C7.36885318,11.8930574 9.02907558,10.1028175 12.4125288,10.1028175 L12.4125288,10.1028175 Z M18.3473239,11.3319822 C18.3473239,11.3319822 15.9089972,8.84164859 12.5455467,8.84164859 C9.2591064,8.84164859 6.00867097,11.3319822 6.00867097,11.3319822 L4.18442659,10.56888 L4.18442659,12.8031793 C4.47246518,12.9021925 4.68349344,13.1662279 4.68349344,13.4882711 C4.68349344,13.8093141 4.46746451,14.0753497 4.17742565,14.1723627 L4.71649787,15.6755641 L3.12428457,15.6755641 L3.66935759,14.1573607 C3.40532222,14.0463458 3.22329784,13.7873111 3.22329784,13.4882711 C3.22329784,13.1902311 3.40332195,12.9381974 3.65435558,12.8241821 L3.65435558,10.3488505 L1,9.24070205 L12.6755641,4 L23.3899994,9.30671089 L18.3473239,11.3319822 Z" id="Fill-1"></path>
            </g>
        </g>
    </g>
</svg>