<?xml version="1.0" encoding="UTF-8" standalone="no"?>
<svg width="19px" height="18px" viewBox="0 0 19 18" version="1.1" xmlns="http://www.w3.org/2000/svg" xmlns:xlink="http://www.w3.org/1999/xlink">
    <!-- Generator: Sketch 3.6.1 (26313) - http://www.bohemiancoding.com/sketch -->
    <title>Page 1</title>
    <desc>Created with Sketch.</desc>
    <defs>
        <path id="path-1" d="M18.7213333,8.667 L18.7213333,17.3333333 L0,17.3333333 L0,8.667 L0,0.000666666667 L18.7213333,0.000666666667 L18.7213333,8.667 L18.7213333,8.667 Z"></path>
    </defs>
    <g id="Welcome" stroke="none" stroke-width="1" fill="none" fill-rule="evenodd">
        <g id="Desktop" transform="translate(-104.000000, -854.000000)">
            <g id="Experience" transform="translate(104.000000, 853.000000)">
                <g id="Page-1" transform="translate(0.000000, 1.000000)">
                    <mask id="mask-2" fill="white">
                        <use xlink:href="#path-1"></use>
                    </mask>
                    <g id="Clip-2"></g>
                    <path d="M0,15.9473333 L0,4.16066667 C0,3.39266667 0.621333333,2.77133333 1.38666667,2.77133333 L4.16,2.77133333 L4.16,17.334 L1.38666667,17.334 C0.621333333,17.334 0,16.7126667 0,15.9473333 L0,15.9473333 Z M6.93466667,2.77133333 L11.7866667,2.77133333 L11.7866667,2.07933333 C11.7866667,1.69533333 11.4773333,1.386 11.0946667,1.386 L7.62666667,1.386 C7.244,1.386 6.93466667,1.69533333 6.93466667,2.07933333 L6.93466667,2.77133333 Z M5.548,2.77133333 L5.548,2.77133333 L5.548,1.386 C5.548,0.618 6.16933333,0.000666666667 6.93466667,0.000666666667 L11.7866667,0.000666666667 C12.5546667,0.000666666667 13.176,0.618 13.176,1.386 L13.176,2.77133333 L13.176,17.334 L5.548,17.334 L5.548,2.77133333 Z M17.336,17.334 L14.5613333,17.334 L14.5613333,2.77133333 L17.336,2.77133333 C18.1,2.77133333 18.7213333,3.39266667 18.7213333,4.16066667 L18.7213333,15.9473333 C18.7213333,16.7126667 18.1,17.334 17.336,17.334 L17.336,17.334 Z" id="Fill-1" fill="#5BB2B8" mask="url(#mask-2)"></path>
                </g>
            </g>
        </g>
    </g>
</svg>