<svg id="Layer_1" data-name="Layer 1" xmlns="http://www.w3.org/2000/svg" viewBox="0 0 153.49 83.68"><defs><style>.cls-1{fill:#43969c;}.cls-2{fill:#95d6e0;opacity:0.4;}.cls-3{fill:#5bb1b8;opacity:0.5;}.cls-4{fill:#fcfdff;}</style></defs><g id="name"><path class="cls-1" d="M7.26,76.6a0.37,0.37,0,0,0,.28.34,2.94,2.94,0,0,0,.61.18,0.17,0.17,0,0,1,.14.18,1.31,1.31,0,0,1,0,.25l-0.78-.05-0.83,0-0.82,0L5,77.55a1.31,1.31,0,0,1,0-.25,0.17,0.17,0,0,1,.14-0.18,2.65,2.65,0,0,0,.58-0.18A0.37,0.37,0,0,0,6,76.6v-3a5,5,0,0,0,0-.7,1.65,1.65,0,0,0-.18-0.56A0.94,0.94,0,0,0,5.4,72a1.12,1.12,0,0,0-.57-0.13,2.22,2.22,0,0,0-.75.13,1.93,1.93,0,0,0-.65.38A1.85,1.85,0,0,0,3,73a2,2,0,0,0-.17.84V76.6a0.37,0.37,0,0,0,.27.34,2.85,2.85,0,0,0,.57.18,0.17,0.17,0,0,1,.14.18,1.31,1.31,0,0,1,0,.25L3,77.49l-0.82,0-0.85,0-0.78.05a1.3,1.3,0,0,1,0-.25,0.17,0.17,0,0,1,.14-0.18,3,3,0,0,0,.61-0.18,0.38,0.38,0,0,0,.28-0.36V72.42a1.06,1.06,0,0,0-.16-0.66,1,1,0,0,0-.7-0.25,0.2,0.2,0,0,1-.2-0.21,0.83,0.83,0,0,1,0-.2l0.56,0L1.65,71l0.63-.13a1.92,1.92,0,0,1,.4-0.07,0.2,0.2,0,0,1,.22.23,3.43,3.43,0,0,1,0,.51,5.45,5.45,0,0,0,0,.79,6.68,6.68,0,0,1,1.26-1.13,2.35,2.35,0,0,1,1.32-.4,1.74,1.74,0,0,1,1.4.54,2.24,2.24,0,0,1,.47,1.51V76.6Z"/><path class="cls-1" d="M15.42,77.47H14.89l-0.5,0-0.4,0-0.21,0s0,0,0-.11a0.9,0.9,0,0,1,0-.14,0.17,0.17,0,0,1,.14-0.18,3.09,3.09,0,0,0,.64-0.18,0.36,0.36,0,0,0,.25-0.35V72.42a1.06,1.06,0,0,0-.16-0.66,1,1,0,0,0-.7-0.25,0.2,0.2,0,0,1-.2-0.21,0.83,0.83,0,0,1,0-.2l0.56,0L14.9,71l0.63-.13a1.92,1.92,0,0,1,.4-0.07,0.2,0.2,0,0,1,.22.23,3.43,3.43,0,0,1,0,.51,5.45,5.45,0,0,0,0,.79v4.23a0.36,0.36,0,0,0,.24.35,2.93,2.93,0,0,0,.67.18,0.16,0.16,0,0,1,.12.18s0,0.08,0,.14a0.23,0.23,0,0,1,0,.11l-0.21,0-0.39,0-0.5,0H15.42Zm-0.9-9.2a0.89,0.89,0,0,1,.25-0.64,0.84,0.84,0,0,1,.64-0.27,0.8,0.8,0,0,1,.61.27,0.91,0.91,0,0,1,.24.64,0.87,0.87,0,0,1-.24.64,0.83,0.83,0,0,1-.61.24,0.88,0.88,0,0,1-.64-0.24A0.85,0.85,0,0,1,14.53,68.27Z"/><path class="cls-1" d="M25.61,71.41a1.38,1.38,0,0,0-1.17.63,2.85,2.85,0,0,0-.45,1.7A3.59,3.59,0,0,0,24.65,76a2.16,2.16,0,0,0,1.77.83,1.94,1.94,0,0,0,.82-0.15,5.32,5.32,0,0,0,.57-0.31l0.11-.07a0.23,0.23,0,0,1,.12,0,0.25,0.25,0,0,1,.17.11,0.93,0.93,0,0,1,.12.17,2.66,2.66,0,0,1-.38.37,3.09,3.09,0,0,1-.55.34,3.36,3.36,0,0,1-.76.26,4.45,4.45,0,0,1-1,.1,3.39,3.39,0,0,1-1.19-.21,2.73,2.73,0,0,1-1-.62,2.93,2.93,0,0,1-.67-1,3.92,3.92,0,0,1-.25-1.45,3.39,3.39,0,0,1,.3-1.43,3.7,3.7,0,0,1,.77-1.11,3.6,3.6,0,0,1,1-.72,2.72,2.72,0,0,1,1.13-.26,4,4,0,0,1,1,.12,2.92,2.92,0,0,1,.78.32,1.57,1.57,0,0,1,.5.47,1,1,0,0,1,.18.56,0.19,0.19,0,0,1-.15.15,1.93,1.93,0,0,1-.34.1l-0.37.05-0.21,0a0.35,0.35,0,0,1-.31-0.19L26.65,72a1.67,1.67,0,0,0-.37-0.41A1,1,0,0,0,25.61,71.41Z"/><path class="cls-1" d="M33.66,74.24a3.35,3.35,0,0,1,.27-1.33,3.38,3.38,0,0,1,1.81-1.81,3.35,3.35,0,0,1,1.34-.27,3.66,3.66,0,0,1,1.38.25,3.25,3.25,0,0,1,1.08.7,3.1,3.1,0,0,1,.7,1.08,3.72,3.72,0,0,1,.25,1.39,3.34,3.34,0,0,1-.27,1.34,3.4,3.4,0,0,1-1.81,1.81,3.35,3.35,0,0,1-1.34.27,3.66,3.66,0,0,1-1.38-.25,3.25,3.25,0,0,1-1.08-.7,3.11,3.11,0,0,1-.7-1.07A3.7,3.7,0,0,1,33.66,74.24Zm1.44-.5a5.79,5.79,0,0,0,.12,1.16A4.07,4.07,0,0,0,35.6,76a2.44,2.44,0,0,0,.65.8,1.51,1.51,0,0,0,1,.31,1.63,1.63,0,0,0,1.35-.61A2.47,2.47,0,0,0,39,74.9a6.51,6.51,0,0,0-.12-1.19,4.32,4.32,0,0,0-.37-1.13,2.55,2.55,0,0,0-.66-0.85,1.52,1.52,0,0,0-1-.34A1.67,1.67,0,0,0,35.6,72,2.64,2.64,0,0,0,35.1,73.73Z"/><path class="cls-1" d="M49.5,77.55l-0.81-.05-0.83,0-0.86,0-0.82.05a1.31,1.31,0,0,1,0-.25,0.17,0.17,0,0,1,.14-0.18,3.31,3.31,0,0,0,.63-0.18,0.38,0.38,0,0,0,.29-0.36V68.35A0.89,0.89,0,0,0,47,67.68a1.27,1.27,0,0,0-.73-0.22,0.2,0.2,0,0,1-.2-0.21,0.87,0.87,0,0,1,0-.21l0.55,0L47.32,67A4.64,4.64,0,0,0,48,66.83a1.76,1.76,0,0,1,.4-0.08,0.22,0.22,0,0,1,.19.06,0.27,0.27,0,0,1,0,.17,4.7,4.7,0,0,1,0,.6,6.13,6.13,0,0,0,0,.8v8.19a0.38,0.38,0,0,0,.28.36,3.07,3.07,0,0,0,.64.18,0.16,0.16,0,0,1,.12.18A1.34,1.34,0,0,1,49.5,77.55Z"/><path class="cls-1" d="M60.59,76a0.32,0.32,0,0,1,.23-0.11,0.38,0.38,0,0,1,.29.26,4.44,4.44,0,0,1-.46.54,2.93,2.93,0,0,1-.62.47,3.37,3.37,0,0,1-.82.33,4.12,4.12,0,0,1-1.06.12,3.4,3.4,0,0,1-1.16-.2,2.67,2.67,0,0,1-1-.61,3,3,0,0,1-.67-1,3.75,3.75,0,0,1-.25-1.44,3.44,3.44,0,0,1,.3-1.44,3.7,3.7,0,0,1,.77-1.13,3.62,3.62,0,0,1,1-.73,2.68,2.68,0,0,1,1.11-.26,2.48,2.48,0,0,1,2.07.83A3.39,3.39,0,0,1,61,73.81a0.08,0.08,0,0,1-.09.09l-4.42.2a3.46,3.46,0,0,0,.17,1.1,2.66,2.66,0,0,0,.47.87,2.15,2.15,0,0,0,.74.57,2.27,2.27,0,0,0,1,.21,2,2,0,0,0,.94-0.23A2.46,2.46,0,0,0,60.59,76Zm-2.47-4.67a1.38,1.38,0,0,0-1.19.6,2.62,2.62,0,0,0-.43,1.56l2.88-.14a0.19,0.19,0,0,0,.23-0.2,2.23,2.23,0,0,0-.09-0.61A2,2,0,0,0,59.24,72a1.55,1.55,0,0,0-.46-0.44A1.23,1.23,0,0,0,58.11,71.38Z"/><path class="cls-1" d="M78.11,75.8Q78.85,74,79.21,73a5.33,5.33,0,0,0,.36-1.22,0.34,0.34,0,0,0-.1-0.25A1,1,0,0,0,79,71.36a0.18,0.18,0,0,1-.2-0.2,0.41,0.41,0,0,1,0-.09l0-.11q0.6,0,1.27,0h0.62l0.51,0a0.61,0.61,0,0,1,0,.2,0.15,0.15,0,0,1-.05.13l-0.15.1-0.54.31a0.83,0.83,0,0,0-.38.44l-2.22,5.48a0.73,0.73,0,0,1-.23,0,0.24,0.24,0,0,1-.24-0.15L77.26,77l-2.1-4.87A2.81,2.81,0,0,0,75,71.78a0.78,0.78,0,0,0-.17-0.21,0.61,0.61,0,0,0-.23-0.11l-0.35-.07a0.2,0.2,0,0,1-.2-0.23,0.61,0.61,0,0,1,0-.2l0.72,0h1.65l0.77,0a0.44,0.44,0,0,1,0,.2,0.18,0.18,0,0,1-.2.2,1.61,1.61,0,0,0-.48.13,0.21,0.21,0,0,0-.11.19,1.87,1.87,0,0,0,.09.38c0.06,0.2.16,0.46,0.29,0.77Z"/><path class="cls-1" d="M92.46,77.06c0.11,0,.17.11,0.18,0.32a1.74,1.74,0,0,1-1,.28,1.57,1.57,0,0,1-.59-0.1,1.24,1.24,0,0,1-.42-0.27,1.21,1.21,0,0,1-.26-0.38,1.66,1.66,0,0,1-.12-0.44,2.14,2.14,0,0,1-.91.94,2.79,2.79,0,0,1-1.22.25,4.25,4.25,0,0,1-.65-0.05,2,2,0,0,1-.65-0.22,1.4,1.4,0,0,1-.5-0.47,1.47,1.47,0,0,1-.2-0.81,1.65,1.65,0,0,1,.27-1,2.18,2.18,0,0,1,.69-0.64A4.13,4.13,0,0,1,88,74.09q0.5-.15,1-0.26l0.48-.1,0.39-.11a0.4,0.4,0,0,0,.27-0.17A1.06,1.06,0,0,0,90.13,73a2.31,2.31,0,0,0-.28-1.19,1,1,0,0,0-1-.47,1.42,1.42,0,0,0-.44.06,0.74,0.74,0,0,0-.31.19,1.17,1.17,0,0,0-.21.34q-0.09.21-.18,0.5a0.37,0.37,0,0,1-.21.25,3.79,3.79,0,0,1-.54.18L86.75,73l-0.23,0q-0.15,0-.15-0.32A1.1,1.1,0,0,1,86.62,72a2.61,2.61,0,0,1,.67-0.6A4,4,0,0,1,88.17,71a2.82,2.82,0,0,1,.9-0.16,4.66,4.66,0,0,1,1,.09,1.78,1.78,0,0,1,.74.34,1.53,1.53,0,0,1,.47.66A3,3,0,0,1,91.42,73v2.63a5.48,5.48,0,0,0,0,.77,1.16,1.16,0,0,0,.11.38,0.62,0.62,0,0,0,.24.28,0.56,0.56,0,0,0,.27.07,0.64,0.64,0,0,0,.24,0A0.36,0.36,0,0,1,92.46,77.06Zm-2.33-3-0.49.08q-0.4.08-.78,0.18a2.44,2.44,0,0,0-.67.3,1.5,1.5,0,0,0-.47.48,1.36,1.36,0,0,0-.18.72,1.22,1.22,0,0,0,.3.89,1,1,0,0,0,.75.31,1.37,1.37,0,0,0,.58-0.13,1.44,1.44,0,0,0,.49-0.37A2,2,0,0,0,90,76a1.85,1.85,0,0,0,.13-0.7V74.07Z"/><path class="cls-1" d="M101.41,76.57a0.34,0.34,0,0,1,.13-0.09l0.08,0a0.3,0.3,0,0,1,.25.2,3.73,3.73,0,0,1-.86.72,1.87,1.87,0,0,1-1,.28,2.39,2.39,0,0,1-.58-0.07A1,1,0,0,1,99,77.32a1.37,1.37,0,0,1-.31-0.54,2.89,2.89,0,0,1-.11-0.9V71.65H97.63V71.48a0.51,0.51,0,0,1,0-.2,0.16,0.16,0,0,1,.16-0.09A1,1,0,0,0,98.5,71a1.67,1.67,0,0,0,.43-0.55q0.18-.37.32-0.69a0.42,0.42,0,0,1,.31-0.32h0.28V71h1.79a1.29,1.29,0,0,1-.07.48,0.25,0.25,0,0,1-.25.16H99.83v3.8a5.44,5.44,0,0,0,0,.79,1.36,1.36,0,0,0,.14.46,0.44,0.44,0,0,0,.21.21,0.78,0.78,0,0,0,.28,0,1,1,0,0,0,.48-0.11A2.75,2.75,0,0,0,101.41,76.57Z"/><path class="cls-1" d="M110.46,77.55l-0.81-.05-0.83,0-0.86,0-0.82.05a1.31,1.31,0,0,1,0-.25,0.17,0.17,0,0,1,.14-0.18,3.31,3.31,0,0,0,.63-0.18,0.38,0.38,0,0,0,.29-0.36V68.35a0.89,0.89,0,0,0-.19-0.67,1.27,1.27,0,0,0-.73-0.22,0.2,0.2,0,0,1-.2-0.21,0.87,0.87,0,0,1,0-.21l0.55,0,0.64-.05a4.64,4.64,0,0,0,.63-0.12,1.76,1.76,0,0,1,.4-0.08,0.22,0.22,0,0,1,.19.06,0.27,0.27,0,0,1,0,.17,4.7,4.7,0,0,1,0,.6,6.13,6.13,0,0,0,0,.8v8.19a0.38,0.38,0,0,0,.28.36,3.07,3.07,0,0,0,.64.18,0.16,0.16,0,0,1,.12.18A1.34,1.34,0,0,1,110.46,77.55Z"/><path class="cls-1" d="M122.4,77.06c0.11,0,.17.11,0.18,0.32a1.74,1.74,0,0,1-1,.28,1.57,1.57,0,0,1-.59-0.1,1.24,1.24,0,0,1-.42-0.27,1.21,1.21,0,0,1-.26-0.38,1.66,1.66,0,0,1-.12-0.44,2.14,2.14,0,0,1-.91.94,2.79,2.79,0,0,1-1.22.25,4.25,4.25,0,0,1-.65-0.05,2,2,0,0,1-.65-0.22,1.4,1.4,0,0,1-.5-0.47,1.47,1.47,0,0,1-.2-0.81,1.65,1.65,0,0,1,.27-1,2.18,2.18,0,0,1,.69-0.64,4.13,4.13,0,0,1,.92-0.41q0.5-.15,1-0.26l0.48-.1,0.39-.11a0.4,0.4,0,0,0,.27-0.17,1.06,1.06,0,0,0,.05-0.41,2.31,2.31,0,0,0-.28-1.19,1,1,0,0,0-1-.47,1.42,1.42,0,0,0-.44.06,0.74,0.74,0,0,0-.31.19,1.17,1.17,0,0,0-.21.34q-0.09.21-.18,0.5a0.37,0.37,0,0,1-.21.25,3.79,3.79,0,0,1-.54.18l-0.23.06-0.23,0q-0.15,0-.15-0.32a1.1,1.1,0,0,1,.26-0.67,2.61,2.61,0,0,1,.67-0.6,4,4,0,0,1,.88-0.42,2.82,2.82,0,0,1,.9-0.16,4.66,4.66,0,0,1,1,.09,1.78,1.78,0,0,1,.74.34,1.53,1.53,0,0,1,.47.66,3,3,0,0,1,.16,1.07v2.63a5.48,5.48,0,0,0,0,.77,1.16,1.16,0,0,0,.11.38,0.62,0.62,0,0,0,.24.28,0.56,0.56,0,0,0,.27.07,0.64,0.64,0,0,0,.24,0A0.36,0.36,0,0,1,122.4,77.06Zm-2.33-3-0.49.08q-0.4.08-.78,0.18a2.44,2.44,0,0,0-.67.3,1.5,1.5,0,0,0-.47.48,1.36,1.36,0,0,0-.18.72,1.22,1.22,0,0,0,.3.89,1,1,0,0,0,.75.31,1.37,1.37,0,0,0,.58-0.13,1.44,1.44,0,0,0,.49-0.37,2,2,0,0,0,.34-0.56,1.85,1.85,0,0,0,.13-0.7V74.07Z"/><path class="cls-1" d="M134.55,76.6a0.37,0.37,0,0,0,.28.34,2.94,2.94,0,0,0,.61.18,0.17,0.17,0,0,1,.14.18,1.31,1.31,0,0,1,0,.25l-0.78-.05-0.83,0-0.82,0-0.8.05a1.31,1.31,0,0,1,0-.25,0.17,0.17,0,0,1,.14-0.18,2.65,2.65,0,0,0,.58-0.18,0.37,0.37,0,0,0,.26-0.34v-3a5,5,0,0,0,0-.7,1.65,1.65,0,0,0-.18-0.56,0.94,0.94,0,0,0-.35-0.37,1.12,1.12,0,0,0-.57-0.13,2.22,2.22,0,0,0-.75.13,1.93,1.93,0,0,0-.65.38,1.85,1.85,0,0,0-.45.62,2,2,0,0,0-.17.84V76.6a0.37,0.37,0,0,0,.27.34,2.85,2.85,0,0,0,.57.18,0.17,0.17,0,0,1,.14.18,1.31,1.31,0,0,1,0,.25l-0.78-.05-0.82,0-0.85,0-0.78.05a1.3,1.3,0,0,1,0-.25,0.17,0.17,0,0,1,.14-0.18,3,3,0,0,0,.61-0.18,0.38,0.38,0,0,0,.28-0.36V72.42a1.06,1.06,0,0,0-.16-0.66,1,1,0,0,0-.7-0.25,0.2,0.2,0,0,1-.2-0.21,0.83,0.83,0,0,1,0-.2l0.56,0,0.59-.05,0.63-.13a1.92,1.92,0,0,1,.4-0.07,0.2,0.2,0,0,1,.22.23,3.43,3.43,0,0,1,0,.51,5.45,5.45,0,0,0,0,.79,6.68,6.68,0,0,1,1.26-1.13,2.35,2.35,0,0,1,1.32-.4,1.74,1.74,0,0,1,1.4.54,2.24,2.24,0,0,1,.47,1.51V76.6Z"/><path class="cls-1" d="M147.47,76.11a1.38,1.38,0,0,0,0,.31,0.45,0.45,0,0,0,.12.22,0.63,0.63,0,0,0,.25.15,2.16,2.16,0,0,0,.42.08,0.2,0.2,0,0,1,.2.2,0.9,0.9,0,0,1,0,.21l-0.53,0-0.56.05-0.6.13a1.64,1.64,0,0,1-.38.07,0.2,0.2,0,0,1-.22-0.23V76.17l-0.43.56a2.59,2.59,0,0,1-.5.47,2.35,2.35,0,0,1-.65.33,2.83,2.83,0,0,1-.89.12,2.39,2.39,0,0,1-1-.21,2.44,2.44,0,0,1-.84-0.64,3.21,3.21,0,0,1-.59-1,4.07,4.07,0,0,1-.22-1.39,3.43,3.43,0,0,1,.32-1.51,3.8,3.8,0,0,1,.8-1.12,3.46,3.46,0,0,1,1-.69,2.66,2.66,0,0,1,1-.24,4.23,4.23,0,0,1,1,.11,6.6,6.6,0,0,1,.9.3V68.35A1,1,0,0,0,146,67.7a1,1,0,0,0-.7-0.24,0.2,0.2,0,0,1-.2-0.21,0.87,0.87,0,0,1,0-.21l0.56,0,0.59-.05a4.64,4.64,0,0,0,.63-0.12,1.76,1.76,0,0,1,.4-0.08,0.2,0.2,0,0,1,.22.23,4.44,4.44,0,0,1,0,.6,6.32,6.32,0,0,0,0,.83v7.7Zm-1.29-3.87a3.08,3.08,0,0,0-.84-0.63,2.3,2.3,0,0,0-1-.23,1.47,1.47,0,0,0-1.34.73,3.54,3.54,0,0,0-.45,1.88,4.62,4.62,0,0,0,.13,1.11A3.08,3.08,0,0,0,143,76a2,2,0,0,0,.61.63,1.46,1.46,0,0,0,.8.23,1.18,1.18,0,0,0,.61-0.18,2.4,2.4,0,0,0,.56-0.47,2.48,2.48,0,0,0,.41-0.64,1.74,1.74,0,0,0,.16-0.71V72.23Z"/></g><g id="logo"><path class="cls-2" d="M74.67,10.44L52.86,47.13l-3.09,5.2H99.13L77.75,15.71Z"/><path class="cls-2" d="M70.07,10.85L56.79,51l-1.88,5.7,41.15-8.28L103.19,47,74.24,15.4Z"/><path class="cls-2" d="M60.9,60L99.33,43.82,106,41,70.73,15.79l-5.07-3.63L61.49,54.08,60.9,60"/><path class="cls-3" d="M67.48,62.07l34-23.42,5.89-4.06-40-17.73-5.76-2.55,5.13,41.83,0.73,5.93"/><path class="cls-2" d="M74.37,62.77l28.15-29.61L107.4,28l-43-9.46-6.19-1.36,14.2,39.9,2,5.66"/><path class="cls-2" d="M81.26,62.1l21-34.51,3.64-6-44.18-.78-6.36-.11L78.05,57l3.21,5.14"/><path class="cls-2" d="M87.86,60.09l13-37.89,2.25-6.56L59.72,23.57l-6.24,1.14,30.11,31,4.27,4.39"/><path class="cls-3" d="M52.47,29L88.72,53.36l5.14,3.46,4.4-39.63L99,10.33l-40.7,16.3Z"/><path class="cls-2" d="M93.87,6l-36.23,24-5.21,3.45L93.24,50.07,99,52.44l-4.4-39.63L93.87,6"/><path class="cls-2" d="M87.86,2.68L57.68,33.25l-4.34,4.4L96.93,46l6.18,1.18-13-37.89L87.86,2.68"/><path class="cls-2" d="M81.26,0.67L58.46,36.51l-3.28,5.16,44.46-.46,6.31-.06-21-34.51"/><path class="cls-3" d="M74.37,0L59.93,39.55l-2.08,5.69L101.25,36l6.15-1.3L79.25,5.13"/><path class="cls-2" d="M67.48,0.7L62,42.23l-0.78,6,40.42-17.54,5.73-2.49-34-23.42"/><path class="cls-2" d="M60.9,2.74l3.8,41.69,0.55,6,35.69-25.12L106,21.76,67.55,5.55"/><path class="cls-2" d="M54.9,6l12.87,40,1.85,5.76L99,20.24l4.17-4.48L62,7.47"/><path class="cls-3" d="M74.22,52.33L96,15.64l3.09-5.2H49.77L71.14,47.06Z"/><path class="cls-2" d="M94,6L52.83,14.32l-7.13,1.43L74.66,47.37l4.17,4.55L92.1,11.74,94,6"/><path class="cls-2" d="M88,2.74L49.56,18.95,42.9,21.76,78.16,47l5.07,3.63L87.4,8.69,88,2.74"/><path class="cls-2" d="M81.41,0.7l-34,23.42-5.89,4.06,40,17.73,5.76,2.55L82.14,6.63"/><path class="cls-3" d="M74.52,0L46.37,29.61l-4.88,5.13,43,9.46,6.19,1.36L76.54,5.66"/><path class="cls-2" d="M67.63,0.67l-21,34.51-3.64,6,44.18,0.78L93.49,42,70.84,5.81"/><path class="cls-2" d="M61,2.68L48,40.58l-2.25,6.56,43.39-7.93,6.24-1.14-30.11-31"/><path class="cls-2" d="M55,6l-4.4,39.63-0.76,6.86,40.7-16.3,5.86-2.35L60.17,9.41,55,6"/><path class="cls-3" d="M96.47,29.41L55.66,12.7l-5.79-2.37L54.27,50,55,56.82l36.23-24Z"/><path class="cls-2" d="M61,60.09L91.21,29.52l4.34-4.4L52,16.81l-6.18-1.18,13,37.89L61,60.09"/><path class="cls-3" d="M67.63,62.1l22.8-35.84,3.28-5.16-44.46.46L43,21.62,64,56.12l3.64,6"/><path class="cls-2" d="M74.52,62.77L89,23.22,91,17.53l-43.39,9.2L41.49,28,69.65,57.64l4.88,5.13"/><path class="cls-2" d="M81.41,62.07l5.44-41.53,0.78-6L47.21,32.11l-5.73,2.49L75.52,58"/><path class="cls-3" d="M88,60L84.2,18.34l-0.55-6L48,37.45,42.9,41,81.34,57.22,88,60"/><path class="cls-2" d="M79.27,10.94L49.88,42.53,45.71,47,86.86,55.3,94,56.73l-12.87-40Z"/><path class="cls-2" d="M74.67,10.44L52.86,47.13l-3.09,5.2H99.13L77.75,15.71Z"/><path class="cls-3" d="M70.07,10.85L56.79,51l-1.88,5.7,41.15-8.28L103.19,47,74.24,15.4Z"/><path class="cls-4" d="M82.59,36.45a1,1,0,0,0,.77.91,8.57,8.57,0,0,0,1.7.46,0.44,0.44,0,0,1,.38.48,3.32,3.32,0,0,1-.08.64l-2.17-.14q-1.06-.06-2.29-0.06t-2.27.06l-2.23.14a3.26,3.26,0,0,1-.09-0.64,0.44,0.44,0,0,1,.38-0.48,7.74,7.74,0,0,0,1.61-.46A1,1,0,0,0,79,36.45V28.57a12.53,12.53,0,0,0-.13-1.85,4.16,4.16,0,0,0-.49-1.47,2.53,2.53,0,0,0-1-1,3.24,3.24,0,0,0-1.59-.34,6.46,6.46,0,0,0-2.07.34,5.44,5.44,0,0,0-1.8,1,4.89,4.89,0,0,0-1.25,1.63,5,5,0,0,0-.46,2.21v7.33a1,1,0,0,0,.74.91,8.34,8.34,0,0,0,1.59.46,0.44,0.44,0,0,1,.38.48,3.29,3.29,0,0,1-.08.64l-2.17-.14q-1.07-.06-2.27-0.06t-2.36.06l-2.17.14a3.25,3.25,0,0,1-.08-0.64,0.44,0.44,0,0,1,.38-0.48,8.59,8.59,0,0,0,1.7-.46,1,1,0,0,0,.77-0.95V25.47a2.66,2.66,0,0,0-.45-1.73,2.89,2.89,0,0,0-1.93-.64,0.54,0.54,0,0,1-.55-0.56A2.13,2.13,0,0,1,63.84,22q0.55,0,1.55-.06T67,21.8q1-.16,1.76-0.34a5.58,5.58,0,0,1,1.12-.18,0.53,0.53,0,0,1,.6.6,8.59,8.59,0,0,1-.13,1.35,13.47,13.47,0,0,0-.13,2.07,18.21,18.21,0,0,1,3.49-3,6.77,6.77,0,0,1,3.66-1,5,5,0,0,1,3.88,1.43,5.7,5.7,0,0,1,1.29,4v9.78Z"/></g></svg>