<svg id="Layer_1" data-name="Layer 1" xmlns="http://www.w3.org/2000/svg" viewBox="0 0 65.92 62.77"><defs><style>.cls-1{fill:#95d6e0;opacity:0.4;}.cls-1,.cls-2{isolation:isolate;}.cls-2{fill:#5bb1b8;opacity:0.5;}.cls-3{fill:#fcfdff;}</style></defs><title>logo-small</title><g id="logo"><path class="cls-1" d="M33.19,10.44L11.38,47.13l-3.09,5.2H57.65L36.27,15.71Z"/><path class="cls-1" d="M28.59,10.85L15.31,51l-1.88,5.7,41.15-8.28L61.71,47l-29-31.6Z"/><path class="cls-1" d="M19.42,60L57.85,43.82,64.52,41,29.25,15.79l-5.07-3.63L20,54.08,19.42,60"/><path class="cls-2" d="M26,62.07L60,38.65l5.89-4.06-40-17.73-5.76-2.55,5.13,41.83L26,62.07"/><path class="cls-1" d="M32.89,62.77L61,33.16,65.92,28l-43-9.46-6.19-1.36,14.2,39.9,2,5.66"/><path class="cls-1" d="M39.78,62.1l21-34.51,3.64-6-44.18-.78-6.36-.11L36.57,57l3.21,5.14"/><path class="cls-1" d="M46.38,60.09l13-37.89,2.25-6.56L18.24,23.57,12,24.71l30.11,31,4.27,4.39"/><path class="cls-2" d="M11,29L47.24,53.36l5.14,3.46,4.4-39.63,0.74-6.86-40.7,16.3Z"/><path class="cls-1" d="M52.39,6L16.16,30,11,33.45,51.76,50.07l5.76,2.37-4.4-39.63L52.39,6"/><path class="cls-1" d="M46.38,2.68L16.2,33.25l-4.34,4.4L55.45,46l6.18,1.18-13-37.89L46.38,2.68"/><path class="cls-1" d="M39.78,0.67L17,36.51,13.7,41.67l44.46-.46,6.31-.06-21-34.51"/><path class="cls-2" d="M32.89,0L18.45,39.55l-2.08,5.69L59.77,36l6.15-1.3L37.77,5.13"/><path class="cls-1" d="M26,0.7L20.52,42.23l-0.78,6L60.16,30.69l5.73-2.49-34-23.42"/><path class="cls-1" d="M19.42,2.74l3.8,41.69,0.55,6L59.46,25.31l5.06-3.55L26.07,5.55"/><path class="cls-1" d="M13.42,6L26.29,46l1.85,5.76L57.52,20.24l4.17-4.48L20.52,7.47"/><path class="cls-2" d="M32.74,52.33L54.52,15.64l3.09-5.2H8.29L29.66,47.06Z"/><path class="cls-1" d="M52.52,6L11.35,14.32,4.22,15.75l29,31.62,4.17,4.55L50.62,11.74,52.52,6"/><path class="cls-1" d="M46.52,2.74L8.08,19,1.42,21.76,36.68,47l5.07,3.63L45.92,8.69l0.6-5.95"/><path class="cls-1" d="M39.93,0.7l-34,23.42L0,28.18,40,45.91l5.76,2.55L40.66,6.63"/><path class="cls-2" d="M33,0L4.89,29.61,0,34.74,43,44.2l6.19,1.36L35.06,5.66"/><path class="cls-1" d="M26.15,0.67l-21,34.51-3.64,6L45.69,42,52,42,29.36,5.81"/><path class="cls-1" d="M19.52,2.68l-13,37.9L4.27,47.14l43.39-7.93,6.24-1.14-30.11-31"/><path class="cls-1" d="M13.52,6L9.12,45.63,8.36,52.49l40.7-16.3,5.86-2.35L18.69,9.41,13.52,6"/><path class="cls-2" d="M55,29.41L14.18,12.7,8.39,10.33,12.79,50l0.73,6.82,36.23-24Z"/><path class="cls-1" d="M19.52,60.09L49.73,29.52l4.34-4.4L10.52,16.81,4.34,15.63l13,37.89,2.18,6.57"/><path class="cls-2" d="M26.15,62.1l22.8-35.84,3.28-5.16-44.46.46-6.25.06,21,34.5,3.64,6"/><path class="cls-1" d="M33,62.77L47.52,23.22l2-5.69L6.13,26.73,0,28,28.17,57.64,33,62.77"/><path class="cls-1" d="M39.93,62.07l5.44-41.53,0.78-6L5.73,32.11,0,34.6,34,58"/><path class="cls-2" d="M46.52,60l-3.8-41.66-0.55-6L6.52,37.45,1.42,41,39.86,57.22,46.52,60"/><path class="cls-1" d="M37.79,10.94L8.4,42.53,4.23,47l41.15,8.3,7.14,1.43-12.87-40Z"/><path class="cls-1" d="M33.19,10.44L11.38,47.13l-3.09,5.2H57.65L36.27,15.71Z"/><path class="cls-2" d="M28.59,10.85L15.31,51l-1.88,5.7,41.15-8.28L61.71,47l-29-31.6Z"/><path class="cls-3" d="M41.11,36.45a1,1,0,0,0,.77.91,8.57,8.57,0,0,0,1.7.46,0.44,0.44,0,0,1,.38.48,3.32,3.32,0,0,1-.08.64l-2.17-.14q-1.06-.06-2.29-0.06t-2.27.06l-2.23.14a3.26,3.26,0,0,1-.09-0.64,0.44,0.44,0,0,1,.38-0.48,7.74,7.74,0,0,0,1.61-.46,1,1,0,0,0,.7-0.91V28.57a12.53,12.53,0,0,0-.13-1.85,4.16,4.16,0,0,0-.49-1.47,2.53,2.53,0,0,0-1-1,3.24,3.24,0,0,0-1.59-.34,6.46,6.46,0,0,0-2.07.34,5.44,5.44,0,0,0-1.8,1,4.89,4.89,0,0,0-1.25,1.63,5,5,0,0,0-.46,2.21v7.33a1,1,0,0,0,.74.91,8.34,8.34,0,0,0,1.59.46,0.44,0.44,0,0,1,.38.48,3.29,3.29,0,0,1-.08.64l-2.17-.14q-1.07-.06-2.27-0.06t-2.36.06l-2.17.14a3.25,3.25,0,0,1-.08-0.64,0.44,0.44,0,0,1,.38-0.48,8.59,8.59,0,0,0,1.7-.46,1,1,0,0,0,.77-1V25.47a2.66,2.66,0,0,0-.45-1.73,2.89,2.89,0,0,0-1.93-.64,0.54,0.54,0,0,1-.55-0.53s0,0,0,0A2.13,2.13,0,0,1,22.36,22q0.55,0,1.55-.06t1.61-.14q1-.16,1.76-0.34a5.58,5.58,0,0,1,1.12-.18,0.53,0.53,0,0,1,.6.6,8.59,8.59,0,0,1-.13,1.35,13.47,13.47,0,0,0-.13,2.07,18.21,18.21,0,0,1,3.49-3,6.77,6.77,0,0,1,3.66-1,5,5,0,0,1,3.88,1.43,5.7,5.7,0,0,1,1.29,4v9.78Z"/></g></svg>