<?xml version="1.0" encoding="UTF-8" standalone="no"?>
<svg width="18px" height="18px" viewBox="0 0 18 18" version="1.1" xmlns="http://www.w3.org/2000/svg" xmlns:xlink="http://www.w3.org/1999/xlink">
    <!-- Generator: Sketch 3.6.1 (26313) - http://www.bohemiancoding.com/sketch -->
    <title>Fill 1</title>
    <desc>Created with Sketch.</desc>
    <defs></defs>
    <g id="Welcome" stroke="none" stroke-width="1" fill="none" fill-rule="evenodd">
        <g id="Desktop" transform="translate(-422.000000, -486.000000)" fill="#FFFFFF">
            <g id="Profile" transform="translate(-14.000000, 351.000000)">
                <path d="M446.773,145.896429 C446.773,145.896429 448.078,144.604286 448.362143,142.867286 C449.127143,142.867286 449.600286,141.019714 448.835286,140.370429 C448.866143,139.686429 449.818857,135 445,135 C440.182429,135 441.133857,139.686429 441.166,140.370429 C440.401,141.019714 440.872857,142.867286 441.639143,142.867286 C441.923286,144.604286 443.228286,145.896429 443.228286,145.896429 C443.228286,145.896429 443.218,147.117857 442.774429,147.188571 C441.343429,147.416143 436,149.772857 436,152.357143 L445,152.357143 L454,152.357143 C454,149.772857 448.657857,147.416143 447.226857,147.188571 C446.783286,147.117857 446.773,145.896429 446.773,145.896429 Z" id="Fill-1"></path>
            </g>
        </g>
    </g>
</svg>