<?xml version="1.0" encoding="UTF-8" standalone="no"?>
<svg width="30px" height="20px" viewBox="0 0 30 20" version="1.1" xmlns="http://www.w3.org/2000/svg" xmlns:xlink="http://www.w3.org/1999/xlink">
    <!-- Generator: Sketch 3.6.1 (26313) - http://www.bohemiancoding.com/sketch -->
    <title>Imported EPS Copy</title>
    <desc>Created with Sketch.</desc>
    <defs></defs>
    <g id="Welcome" stroke="none" stroke-width="1" fill="none" fill-rule="evenodd">
        <g id="Desktop" transform="translate(-646.000000, -1636.000000)" fill="#FFFFFF">
            <g id="Skills" transform="translate(-15.000000, 1506.000000)">
                <g id="Imported-EPS-Copy" transform="translate(661.000000, 130.000000)">
                    <g id="Imported-EPS">
                        <g id="Page-1">
                            <path d="M3.51106155,0.293076924 L26.9748001,0.293076924 C27.2004693,0.559776925 27.2546885,0.868973079 27.2532232,1.21187308 C27.2473616,5.64173079 27.2517578,10.0730539 27.248827,14.5029116 C27.248827,15.3103385 27.0275539,15.5374731 26.2128001,15.5374731 C18.8990654,15.5418693 11.5867962,15.5418693 4.27306155,15.5374731 C3.4583077,15.5374731 3.23850001,15.3103385 3.23703462,14.5029116 C3.23410386,10.0730539 3.23850001,5.64173079 3.23263847,1.21187308 C3.23263847,0.868973079 3.2868577,0.559776925 3.51106155,0.293076924 L3.51106155,0.293076924 Z M15.2458616,2.43840001 C12.2095847,2.43840001 9.17184233,2.44572693 6.1355654,2.43107308 C5.62707694,2.42814231 5.40580386,2.57175001 5.41020002,3.12126924 C5.42778463,6.27477694 5.42778463,9.42828464 5.41020002,12.580327 C5.40580386,13.1210539 5.59923463,13.27785 6.12384233,13.2763847 C12.1963962,13.2631962 18.2704154,13.2617308 24.3444347,13.2793154 C24.9159347,13.2807808 25.0741962,13.0785577 25.0712655,12.5349 C25.0536808,9.42095772 25.0639385,6.3070154 25.0610078,3.1916077 C25.0610078,2.48089616 25.0185116,2.43840001 24.2975424,2.43840001 C21.2803154,2.43693462 18.2630885,2.43693462 15.2458616,2.43840001 L15.2458616,2.43840001 Z" id="Fill-1"></path>
                            <path d="M0.723900002,16.4386847 C0.993530772,16.4254962 1.26316154,16.4005847 1.53279231,16.4005847 C10.6723962,16.3991193 19.8134654,16.3991193 28.9530693,16.4005847 C29.2227001,16.4005847 29.4923309,16.4254962 29.763427,16.4386847 L29.763427,16.9032116 C29.2813155,18.2279193 28.2995078,18.981127 26.9748001,19.343077 L3.51106155,19.343077 C2.18635385,18.981127 1.20454616,18.2279193 0.723900002,16.9032116 L0.723900002,16.4386847 L0.723900002,16.4386847 Z M15.2429308,18.295327 C15.7455577,18.295327 16.2467193,18.2982577 16.7493462,18.2938616 C17.01165,18.2909308 17.2724885,18.2616231 17.2842116,17.9128616 C17.2974,17.5597039 17.04975,17.5128116 16.7771885,17.5128116 L13.7086731,17.5128116 C13.4361116,17.5128116 13.1884616,17.5597039 13.20165,17.9128616 C13.2133731,18.2630885 13.475677,18.2909308 13.7379808,18.2938616 C14.2391423,18.2982577 14.7417693,18.295327 15.2429308,18.295327 L15.2429308,18.295327 Z" id="Fill-2"></path>
                        </g>
                    </g>
                </g>
            </g>
        </g>
    </g>
</svg>